<?xml version="1.0" encoding="utf-8"?>
<!-- Generator: Adobe Illustrator 15.1.0, SVG Export Plug-In . SVG Version: 6.00 Build 0)  -->
<!DOCTYPE svg PUBLIC "-//W3C//DTD SVG 1.1//EN" "http://www.w3.org/Graphics/SVG/1.1/DTD/svg11.dtd">
<svg version="1.1" id="Layer_1" xmlns="http://www.w3.org/2000/svg" xmlns:xlink="http://www.w3.org/1999/xlink" x="0px" y="0px"
	 width="128px" height="128px" viewBox="0 0 128 128" enable-background="new 0 0 128 128" xml:space="preserve">
<g>
	<path fill="#FFFFFF" d="M96.869,111.583H31.13c-9.445,0-17.13-7.476-17.13-16.665V78.219h11.616v16.699
		c0,2.783,2.474,5.049,5.514,5.049h65.739c3.041,0,5.515-2.266,5.515-5.049v-16.23H114v16.23
		C114,104.107,106.314,111.583,96.869,111.583z"/>
	<path fill="none" d="M41.213,16.417v21.249c0,0,0.701,25.803,24.928,25.803c24.228,0,43.024,0,43.024,0"/>
	<g>
		<path fill="#FFFFFF" d="M84.159,69.277H66.141c-23.635,0-30.438-20.574-30.733-31.454l-0.002-0.158V16.417h11.616v21.148
			c0.093,2.293,1.394,20.096,19.119,20.096h18.019V69.277z"/>
	</g>
	<g>
		<polygon fill="#FFFFFF" points="79.07,80.748 109.165,63.374 79.07,45.997 		"/>
	</g>
</g>
</svg>
